PathFileType	4	(X/Y/Z)	C:\Users\°ÂÌØÂü\Desktop\20210112\bx_y_5_902-Unnamed.trc
DataRate	CameraRate	NumFrames	NumMarkers	Units	OrigDataRate	OrigDataStartFrame	OrigNumFrames
50.00	50.00	       6	0	mm	50.00	1	       525
Frame#	Time	
		

1	0.000	-654.57880	127.75639	1850.10474	-727.56409	290.60452	1529.93579	-602.96436	-10.63098	1048.46106	-596.41357	-5.50283	802.14203	-641.60522	276.34149	873.40717				-725.83386	250.40454	638.17413	-732.15198	244.84140	575.54846	-680.19580	201.99699	532.60516	-774.35425	255.44463	503.02243	-517.48291	-72.59747	143.20735	-715.75555	79.27387	216.53239	-601.97137	19.49000	165.75031	-704.12610	-4.91617	89.11927	-770.87207	223.49879	204.85342	-594.29724	222.72630	173.48106	-882.55206	296.03354	144.56734	-560.76984	262.48355	165.48273	-665.69989	299.30380	160.22610	-628.46552	307.04837	161.59950	-527.91150	303.97452	146.55840	-713.69269	-68.37282	1553.44360	-798.72125	97.74024	1040.94348	-766.58417	-3.55557	206.13213	-794.17908	57.05790	174.82596	-796.16327	173.41550	183.04478	-771.47968	-34.87477	487.42072	-664.83972	-66.76597	163.44994	-875.98779	-78.82961	141.22340	-689.55865	-51.20667	704.20892	-709.30072	-27.97608	613.80182	-725.20380	-25.26534	566.74536	-711.58582	152.51138	216.46620	-559.25397	-42.89114	163.18010	-674.65057	172.04405	157.42763	-624.35089	-78.01359	160.18323				-620.11548	105.01992	1441.85596	-590.88068	208.16304	821.08368	-676.13367	18.75353	520.19989	-587.75549	216.49257	1066.19214	-693.06116	272.97363	746.35071	-701.89240	80.14189	574.05701	-673.81451	56.34941	157.34622	
2	0.020	-654.65045	127.72238	1850.06299	-727.86243	290.60800	1529.83643	-603.15588	-10.52253	1048.44910	-596.39093	-5.57354	802.10699	-641.64008	276.55478	873.18622	-654.23517	-70.79338	856.10217	-726.11621	250.33060	638.06189	-732.08099	244.76337	575.37946	-680.28058	202.12088	532.58344	-774.39508	255.63393	503.09964	-517.50043	-72.66338	143.03967	-715.92401	79.06512	216.08559	-602.08398	19.39021	165.65111	-704.12610	-4.91617	89.11927	-770.81573	223.48125	204.86115	-594.29724	222.72630	173.48106	-882.42487	296.05392	144.57872	-560.74469	262.40842	165.37602	-665.84491	299.06232	160.26163	-628.37762	306.99005	161.61613	-527.99902	304.12732	146.59570	-713.79749	-68.31595	1553.31946	-798.73053	97.71380	1040.97278	-766.47583	-3.41351	206.01820	-794.14258	56.97212	174.40916	-796.16327	173.41550	183.04478	-771.47852	-34.95346	487.57278	-664.64117	-66.60878	163.56195	-875.99298	-78.87768	141.19183	-689.63953	-51.16654	704.04938	-709.37799	-27.95134	613.70917	-725.22260	-25.50032	566.84412	-711.67938	152.54182	216.37148	-559.18768	-42.89469	163.26082	-674.65057	172.04405	157.42763	-624.35223	-77.81717	160.15004				-620.35425	104.99251	1441.66174	-590.88068	208.16304	821.08368	-676.00635	18.74136	520.36163	-587.81293	216.44135	1066.13586	-692.83417	274.22171	747.89795	-701.63171	79.91509	574.12488	-673.81451	56.34941	157.34622	
3	0.040	-654.71082	127.84509	1850.00818	-728.14746	290.41510	1529.85315	-603.24670	-10.52701	1048.36853	-597.04993	-4.91449	801.96942	-641.71790	276.66068	873.27600	-654.37262	-70.95669	856.30170	-726.28455	250.29884	637.94977	-732.19562	244.87776	575.44037	-680.34045	202.17386	532.58960	-774.37030	255.38324	503.06726	-517.49969	-72.43736	142.98541	-715.90338	79.09657	216.03035	-602.00635	19.42080	165.62614	-704.21442	-4.90699	88.97822	-770.85474	223.44191	204.59850	-594.30914	222.80153	173.52299	-882.53717	296.10168	144.59633	-561.18237	262.42270	165.38055	-665.93622	299.05350	160.42323	-628.39014	307.10217	161.75844	-527.87457	304.13412	146.42490	-713.97089	-68.12428	1553.32141	-798.73053	97.71380	1040.97278	-766.53943	-3.39862	205.94543	-793.92480	57.39728	174.43102	-796.16327	173.41550	183.04478	-771.59412	-34.86708	487.35974	-664.75989	-66.60202	163.58931	-876.18384	-78.95393	141.52309	-689.55865	-51.20667	704.20892	-709.34326	-28.01792	613.68585	-725.22882	-25.49810	566.83698	-711.62335	152.39900	216.49608	-559.18768	-42.89469	163.26082	-674.51904	171.99690	157.58092	-624.35223	-77.81717	160.15004				-620.49664	104.92875	1441.64209	-590.79871	208.23624	821.03302	-675.87299	18.78598	520.58905	-587.83929	216.48732	1066.19763	-692.98749	273.02472	746.53748	-701.84186	79.98172	574.28204	-673.81451	56.34941	157.34622	
4	0.060	-655.00037	127.88155	1850.06982	-728.26434	290.64560	1529.82397	-603.28485	-10.37640	1048.45386	-597.06097	-4.90998	802.18634	-641.71790	276.66068	873.27600	-654.29663	-71.06259	856.38666	-726.20209	250.41200	638.07709	-732.23688	244.82454	575.43579	-680.32025	202.21646	532.51544	-774.36652	255.67111	503.04053	-517.57379	-72.53052	142.91246	-715.90338	79.09657	216.03035	-602.02197	19.40785	165.75763	-704.20990	-5.02714	89.05621	-770.91602	223.69765	204.90279	-594.33594	222.89731	173.45175	-882.67688	296.08038	144.42899	-560.91760	262.30014	165.62331	-665.82330	299.20370	160.26532	-628.43036	307.00616	161.70039	-528.09991	304.04861	146.55696	-714.02252	-68.14125	1553.19458	-798.69067	97.84067	1040.89880	-766.56335	-3.58735	206.05960	-794.17737	57.16146	174.90555	-796.21136	173.38760	182.99670	-771.65131	-34.75894	487.56134	-664.63708	-66.61073	163.55183	-876.26135	-78.88351	141.62534	-689.63953	-51.16654	704.04938	-709.46997	-27.82536	613.57385	-725.17157	-25.06560	566.58319	-711.42358	152.26955	216.67371	-559.18768	-42.89469	163.26082	-674.53180	171.92264	157.52246	-624.27252	-77.92994	160.19006				-620.74573	105.06947	1441.78992	-591.03558	208.35799	820.97827	-676.26556	19.06327	520.13922	-587.84991	216.54579	1066.28442	-692.97894	273.10977	746.46173	-701.89240	80.14189	574.05701	-673.93927	56.29948	157.59038	
5	0.080	-655.16437	127.84980	1850.08569	-728.27734	290.55200	1529.91760	-603.25073	-10.20829	1048.35962	-597.12573	-4.78908	802.13446	-641.89709	276.64972	873.48187	-643.36969	-80.35101	867.74677	-726.19873	250.21742	637.93463	-732.19562	244.87776	575.44037	-680.39868	202.09096	532.47736	-774.49084	255.79602	502.96851	-517.86029	-72.67062	142.57152	-715.90338	79.09657	216.03035	-602.00238	19.36420	165.68184	-704.20990	-5.02714	89.05621	-770.89154	223.42404	204.60292	-594.38770	222.79182	173.47792	-882.59314	295.94220	144.45921	-560.94415	262.55206	165.62035	-665.85260	299.14850	160.26501	-628.29315	306.90448	161.56181	-527.99902	304.12732	146.59570	-714.05688	-68.23766	1553.25830	-798.72125	97.74024	1040.94348	-766.61584	-3.49918	205.92505	-794.10754	57.71674	174.19281	-796.09686	173.26707	182.93674	-771.60046	-34.88118	487.50458	-664.65564	-66.68147	163.48810	-876.15698	-79.18539	141.27307	-689.55499	-51.16120	704.26892	-709.30072	-27.97608	613.80182	-725.07788	-25.25842	566.57874	-711.77411	152.43437	216.49307	-559.32092	-42.91160	163.10197	-674.53180	171.92264	157.52246	-624.21326	-77.92610	160.07596				-621.19073	105.21539	1442.02771	-591.05457	208.61670	820.94080	-676.14954	18.70914	520.34668	-587.96710	216.63565	1066.32251	-693.03918	273.29074	746.52838	-701.89240	80.14189	574.05701	-673.81451	56.34941	157.34622	
6	0.100	-655.11090	128.17589	1850.04321	-728.51038	290.57593	1529.86829	-603.46008	-10.14485	1048.19434	-597.12573	-4.78908	802.13446	-641.71790	276.66068	873.27600				-726.20209	250.41200	638.07709	-732.19562	244.87776	575.44037	-680.27130	202.32458	532.46973	-774.31543	255.80956	503.21057	-517.98950	-72.65875	142.46167	-716.06708	79.16925	215.97594	-602.00635	19.42080	165.62614	-704.17090	-5.04717	89.12797	-770.82751	223.70692	204.74733	-594.33374	222.68330	173.40103	-882.62170	296.00537	144.52580	-561.00342	262.55991	165.69754	-665.89166	299.05118	160.52130	-628.36053	306.93600	161.66298	-527.97040	304.19803	146.48784	-714.11169	-68.15296	1553.17212	-798.75629	97.89725	1041.01880	-766.53717	-3.58798	206.32788	-794.12030	57.62033	174.58635	-796.21136	173.38760	182.99670	-771.54041	-34.72182	487.42310	-664.70184	-66.61871	163.53242	-876.18549	-79.02498	141.45282	-689.55865	-51.20667	704.20892	-709.36560	-27.94481	613.77997	-725.23859	-25.28161	566.67218	-711.58582	152.51138	216.46620	-559.32092	-42.91160	163.10197	-674.65405	171.96037	157.37662	-624.17950	-77.90170	160.13005	-654.41888	-70.90688	856.37915	-621.04443	105.36251	1442.11963	-591.13647	208.54350	820.99146	-675.91376	18.88592	520.44055	-587.92847	216.62045	1066.23828	-693.11798	273.45584	746.65851	-702.06329	80.18413	574.20667	-673.81451	56.34941	157.34622	
